<svg width="210" height="201" viewBox="0 0 210 201" fill="none" xmlns="http://www.w3.org/2000/svg">
<path d="M95.734 5.45439C99.4454 -1.81812 109.837 -1.81813 113.548 5.45438L138.751 54.8388C140.204 57.686 142.931 59.667 146.087 60.1691L200.843 68.8775C208.906 70.1599 212.117 80.0428 206.348 85.8199L167.168 125.05C164.909 127.311 163.868 130.517 164.366 133.674L173.004 188.441C174.276 196.506 165.869 202.614 158.592 198.912L109.175 173.772C106.326 172.323 102.956 172.323 100.107 173.772L50.6903 198.912C43.413 202.614 35.0061 196.506 36.2782 188.441L44.9164 133.674C45.4144 130.517 44.3729 127.311 42.1141 125.05L2.93474 85.8199C-2.83495 80.0428 0.376194 70.1599 8.43965 68.8775L63.195 60.1691C66.3519 59.667 69.0785 57.686 70.5315 54.8388L95.734 5.45439Z" fill="#FFDD28"/>
</svg>