<svg width="210" height="201" viewBox="0 0 210 201" fill="none" xmlns="http://www.w3.org/2000/svg">
<path d="M108.204 8.18175L133.407 57.5662C135.731 62.1217 140.094 65.2913 145.145 66.0946L199.9 74.803C203.126 75.316 204.41 79.2691 202.102 81.58L162.923 120.81C159.309 124.428 157.642 129.557 158.439 134.609L167.077 189.375C167.586 192.601 164.224 195.045 161.313 193.564L111.896 168.425C107.337 166.106 101.945 166.106 97.3865 168.425L47.9698 193.564C45.0589 195.045 41.6961 192.601 42.205 189.375L50.8431 134.609C51.64 129.557 49.9736 124.428 46.3595 120.81L7.1801 81.58C4.87221 79.2691 6.15669 75.316 9.38206 74.803L64.1375 66.0946C69.1884 65.2913 73.551 62.1217 75.8758 57.5662L101.078 8.18176C102.563 5.27274 106.72 5.27276 108.204 8.18175Z" stroke="white" stroke-opacity="0.3" stroke-width="12"/>
</svg>