<svg width="328" height="46" viewBox="0 0 328 46" fill="none" xmlns="http://www.w3.org/2000/svg">
<path d="M11.1976 45.248V10.2779H0V0.752045H32.4175V10.2779H21.0961V45.248H11.1976Z" fill="white"/>
<path d="M38.4407 45.248V0.752045H66.2801V10.2779H48.2773V18.2371H62.5682V27.7629H48.2773V35.7221H66.2801V45.248H38.4407Z" fill="white"/>
<path d="M73.7837 45.248V0.752045H83.6203V35.7221H101.809V45.248H73.7837Z" fill="white"/>
<path d="M107.918 45.248V0.752045H135.758V10.2779H117.755V18.2371H132.046V27.7629H117.755V35.7221H135.758V45.248H107.918Z" fill="white"/>
<path d="M156.686 45.248L138.683 0.752045H149.386L161.079 30.3951L172.71 0.752045H183.536L165.533 45.248H156.686Z" fill="#4F70D3"/>
<path d="M188.211 45.248V0.752045H216.05V10.2779H198.047V18.2371H212.338V27.7629H198.047V35.7221H216.05V45.248H188.211Z" fill="#4F70D3"/>
<path d="M223.554 45.248V0.752045H240.876C244.918 0.752045 248.197 2.04723 250.713 4.63761C253.229 7.22798 254.486 10.4033 254.486 14.1635C254.486 19.762 251.62 23.5849 245.887 25.6322L261.415 45.248H249.599L234.937 26.8856H233.39V45.248H223.554ZM233.39 18.4251H239.701C241.185 18.4251 242.381 18.0282 243.289 17.2343C244.237 16.4405 244.712 15.4169 244.712 14.1635C244.712 12.8265 244.237 11.782 243.289 11.03C242.381 10.2779 241.185 9.90191 239.701 9.90191H233.39V18.4251Z" fill="#4F70D3"/>
<path d="M277.631 46C274.166 46 271.011 45.3106 268.165 43.9319C265.361 42.5114 263.093 40.5477 261.36 38.0409L268.908 31.5858C269.98 33.1317 271.341 34.3642 272.991 35.2834C274.682 36.2025 276.352 36.6621 278.002 36.6621C279.611 36.6621 280.889 36.3279 281.838 35.6594C282.828 34.9491 283.323 34.0509 283.323 32.9646C283.323 31.8365 282.848 30.8547 281.9 30.0191C280.951 29.1835 279.384 28.3896 277.198 27.6376L274.105 26.5722C266.722 24.0654 263.031 19.7829 263.031 13.7248C263.031 9.505 264.433 6.16258 267.238 3.69755C270.083 1.23252 273.733 0 278.188 0C283.879 0 288.602 2.04723 292.355 6.14169L285.921 13.0354C283.9 10.5704 281.363 9.33788 278.311 9.33788C276.868 9.33788 275.61 9.63034 274.538 10.2153C273.507 10.8002 272.991 11.6358 272.991 12.7221C272.991 13.8501 273.486 14.7693 274.476 15.4796C275.466 16.148 277.239 16.9419 279.796 17.861L282.889 18.9891C289.901 21.5377 293.386 25.9664 293.345 32.2752C293.345 36.3279 291.86 39.6285 288.89 42.1771C285.962 44.7257 282.209 46 277.631 46Z" fill="#4F70D3"/>
<path d="M300.161 45.248V0.752045H328V10.2779H309.997V18.2371H324.288V27.7629H309.997V35.7221H328V45.248H300.161Z" fill="#4F70D3"/>
</svg>